<svg version="1.1" id="Layer_1" xmlns="http://www.w3.org/2000/svg" xmlns:xlink="http://www.w3.org/1999/xlink" x="0px" y="0px"
	 width="396.85px" height="226.771px" viewBox="99.215 29.764 396.85 226.771"
	 enable-background="new 99.215 29.764 396.85 226.771" xml:space="preserve">
<g>
	<polygon points="328.252,253.833 328.252,47.034 298.664,47.034 304.003,35.476 340.125,35.476 340.125,253.833 	"/>
	<path d="M356.772,253.866l79.12-85.528c18.186-19.475,29.775-33.64,35.367-43.313c5.713-9.632,8.738-20.619,8.762-31.819
		c0.098-14.104-5.74-27.597-16.08-37.188c-10.416-10.199-24.498-15.78-39.072-15.484c-15.133-0.377-29.748,5.511-40.393,16.27
		c-9.675,9.706-15.705,22.991-17.653,39.544h-11.308c0.986-17.489,8.379-34.002,20.762-46.391
		c13.076-13.38,31.146-20.691,49.848-20.164c19.725,0,35.178,6.281,47.113,18.845c11.773,11.755,18.289,27.777,18.061,44.413
		c0.033,11.87-2.949,23.553-8.67,33.954c-5.967,10.93-17.902,26.133-35.43,45.134L381.9,242.588h112.791v11.245L356.772,253.866z"/>
	<polygon points="206.352,237.941 209.901,229.961 121.766,35.161 114.574,35.161 	"/>
	<polygon points="137.032,35.161 129.839,35.161 213.922,220.947 217.471,212.937 	"/>
	<polygon points="152.264,35.161 145.104,35.161 221.46,203.922 225.01,195.945 	"/>
	<polygon points="198.06,35.161 190.867,35.161 244.169,152.916 247.718,144.906 	"/>
	<polygon points="167.531,35.161 160.368,35.161 229.03,186.932 232.579,178.922 	"/>
	<polygon points="106.501,35.161 99.215,35.161 198.092,256.536 202.332,246.956 	"/>
	<polygon points="182.795,35.161 175.602,35.161 236.6,169.908 240.149,161.929 	"/>
	<polygon points="250.043,35.161 241.94,35.161 224.036,74.706 228.088,83.657 	"/>
	<polygon points="265.276,35.161 257.204,35.161 231.668,91.572 235.689,100.525 	"/>
	<polygon points="247.624,126.845 251.707,135.891 296.498,35.161 288.582,35.161 	"/>
	<polygon points="280.541,35.161 272.469,35.161 239.301,108.44 243.322,117.392 	"/>
</g>
</svg>
